<svg width="40" height="41" viewBox="0 0 40 41" fill="none" xmlns="http://www.w3.org/2000/svg">
<g clip-path="url(#clip0_1_24)">
<path d="M30.4107 26.9595C29.1039 25.6693 27.4724 25.6693 26.1739 26.9595C25.1834 27.9417 24.1929 28.9239 23.219 29.9228C22.9526 30.1974 22.7279 30.2557 22.4033 30.0726C21.7623 29.723 21.0798 29.44 20.4638 29.0571C17.5921 27.2508 15.1866 24.9285 13.0557 22.3148C11.9986 21.0163 11.058 19.6263 10.4004 18.0614C10.2672 17.7451 10.2922 17.537 10.5502 17.279C11.5408 16.3217 12.5063 15.3395 13.4802 14.3573C14.837 12.9922 14.837 11.394 13.4719 10.0206C12.6978 9.23819 11.9237 8.4724 11.1495 7.68997C10.3505 6.89089 9.5597 6.08348 8.7523 5.29272C7.44546 4.01919 5.81401 4.01919 4.5155 5.30105C3.51665 6.28325 2.55941 7.29043 1.54391 8.25598C0.603329 9.14663 0.128874 10.237 0.0289886 11.5106C-0.129163 13.5832 0.378587 15.5393 1.09443 17.4454C2.55941 21.3909 4.79018 24.8952 7.49541 28.1082C11.1495 32.4532 15.5112 35.8909 20.6137 38.3714C22.911 39.4868 25.2916 40.3441 27.8803 40.4856C29.6616 40.5855 31.2098 40.136 32.4501 38.746C33.2991 37.797 34.2563 36.9314 35.1553 36.0241C36.4871 34.6756 36.4954 33.0442 35.1719 31.7124C33.5904 30.1225 32.0006 28.541 30.4107 26.9595Z" fill="white"/>
<path d="M28.8214 20.3279L31.8929 19.8035C31.4101 16.9818 30.0783 14.4264 28.0556 12.3954C25.9164 10.2562 23.2112 8.90773 20.2313 8.49154L19.7984 11.5797C22.1041 11.9043 24.2017 12.9448 25.8581 14.6012C27.423 16.1661 28.4468 18.1471 28.8214 20.3279Z" fill="white"/>
<path d="M33.624 6.97589C30.0781 3.42997 25.5916 1.19087 20.6389 0.5L20.2061 3.58812C24.4845 4.18743 28.3634 6.12687 31.4265 9.18169C34.3315 12.0867 36.2377 15.7575 36.9285 19.7945L40 19.2701C39.1926 14.5921 36.9868 10.347 33.624 6.97589Z" fill="white"/>
</g>
<defs>
<clipPath id="clip0_1_24">
<rect width="40" height="40" fill="white" transform="translate(0 0.5)"/>
</clipPath>
</defs>
</svg>
