<svg width="36" height="36" viewBox="0 0 36 36" fill="none" xmlns="http://www.w3.org/2000/svg">
<path d="M32 0H4C1.79 0 0 1.79 0 4V32C0 34.21 1.79 36 4 36H32C34.21 36 36 34.21 36 32V4C36 1.79 34.21 0 32 0ZM29.814 25.368L26.344 25.416C26.344 25.416 25.596 25.562 24.616 24.886C23.318 23.994 22.094 21.674 21.14 21.976C20.172 22.284 20.202 24.372 20.202 24.372C20.202 24.372 20.21 24.74 19.988 24.98C19.748 25.238 19.278 25.212 19.278 25.212H17.724C17.724 25.212 14.296 25.496 11.274 22.346C7.982 18.912 5.074 12.134 5.074 12.134C5.074 12.134 4.904 11.706 5.086 11.488C5.292 11.246 5.848 11.24 5.848 11.24L9.562 11.222C9.562 11.222 9.912 11.284 10.164 11.468C10.37 11.62 10.488 11.906 10.488 11.906C10.488 11.906 11.088 13.428 11.884 14.806C13.436 17.492 14.158 18.08 14.684 17.792C15.452 17.372 15.222 13.996 15.222 13.996C15.222 13.996 15.236 12.77 14.836 12.224C14.524 11.798 13.938 11.672 13.68 11.64C13.47 11.612 13.812 11.126 14.258 10.906C14.926 10.58 16.108 10.56 17.502 10.574C18.588 10.586 18.902 10.652 19.326 10.756C20.608 11.066 20.172 12.262 20.172 15.132C20.172 16.052 20.006 17.344 20.668 17.77C20.954 17.954 21.65 17.798 23.388 14.838C24.214 13.434 24.832 11.784 24.832 11.784C24.832 11.784 24.968 11.49 25.178 11.364C25.394 11.234 25.684 11.274 25.684 11.274L29.594 11.25C29.594 11.25 30.768 11.108 30.96 11.642C31.16 12.2 30.522 13.502 28.924 15.632C26.302 19.132 26.01 18.806 28.188 20.83C30.268 22.764 30.698 23.704 30.77 23.822C31.63 25.254 29.814 25.368 29.814 25.368Z" fill="#0776A0"/>
</svg>
