<svg width="76" height="77" viewBox="0 0 76 77" fill="none" xmlns="http://www.w3.org/2000/svg">
<g clip-path="url(#clip0_5_72)">
<path d="M54.4983 29L40.6283 8.22667C40.0267 7.34 39.0133 6.89667 38 6.89667C36.9867 6.89667 35.9733 7.34 35.3717 8.25833L21.5017 29H6.33332C4.59166 29 3.16666 30.425 3.16666 32.1667C3.16666 32.4517 3.19832 32.7367 3.29332 33.0217L11.3367 62.3767C12.065 65.0367 14.5033 67 17.4167 67H58.5833C61.4967 67 63.935 65.0367 64.695 62.3767L72.7383 33.0217L72.8333 32.1667C72.8333 30.425 71.4083 29 69.6667 29H54.4983ZM28.5 29L38 15.0667L47.5 29H28.5ZM38 54.3333C34.5167 54.3333 31.6667 51.4833 31.6667 48C31.6667 44.5167 34.5167 41.6667 38 41.6667C41.4833 41.6667 44.3333 44.5167 44.3333 48C44.3333 51.4833 41.4833 54.3333 38 54.3333Z" fill="white"/>
</g>
<defs>
<clipPath id="clip0_5_72">
<rect width="76" height="76" fill="white" transform="translate(0 0.5)"/>
</clipPath>
</defs>
</svg>
